<svg width="318" height="330" xmlns="http://www.w3.org/2000/svg" xmlns:xlink="http://www.w3.org/1999/xlink" xml:space="preserve" overflow="hidden"><g transform="translate(-135 -135)"><path d="M0 0C1.59287 1.48581 3.17419 2.98409 4.74396 4.49428 6.00693 5.69738 6.00693 5.69738 7.2954 6.92478 34.2147 33.1486 50.19 69.438 50.9708 107.004 51.3092 146.193 36.2192 177.793 9.73761 206.238 9.0527 206.988 8.36779 207.739 7.66212 208.512-6.57177 223.51-25.4512 233.577-45.1925 239.196-45.7886 239.373-46.3846 239.551-46.9988 239.735-62.3011 242.948-80.3455 241.024-95.1289 236.199-96.5631 235.779-97.9975 235.359-99.432 234.939-112.243 230.981-124.114 225.042-136.04 218.996-151.074 211.431-168.279 203.543-185.385 208.141-191.077 210.404-195.468 213.265-200.171 217.13-202.367 218.447-203.48 218.458-205.988 218.097-206.977 217.809-207.965 217.521-208.984 217.224-210.279 212.791-210.279 212.791-209.007 210.381-192.171 192.268-165.372 170.846-139.74 169.257-118.713 169.473-99.9722 179.406-82.5824 190.32-62.6279 202.779-40.4302 211.762-16.5141 207.587-3.79948 204.05 6.3558 196.111 12.8664 184.624 17.3979 176.177 20.555 167.658 22.7211 158.299 23.0571 157.007 23.0571 157.007 23.3999 155.689 29.1409 130.405 21.8892 104.08 8.73888 82.3951-0.694883 67.8188-11.5608 53.3223-25.2179 42.446-26.2388 41.6259-27.2598 40.8058-28.3116 39.9609-43.1908 28.3618-60.0721 19.8236-78.1505 14.4816-79.1279 14.1868-79.1279 14.1868-80.1251 13.8861-113.485 4.04321-148.276 8.63768-179.022 24.4689-183.615 27.1209-187.855 30.1558-192.006 33.4574-193.024 34.2595-194.042 35.0615-195.092 35.8879-206.675 46.1031-212.879 60.9105-214.214 76.0916-214.955 89.6303-214.717 102.637-205.676 113.555-193.968 126.048-179.137 133.097-162.044 134.329-154.292 134.329-147.199 133.758-139.939 130.978-137.213 130.037-134.921 129.919-132.082 130.334-130.084 133.33-130.084 133.33-129.96 135.765-131.416 139.082-133.401 139.982-136.643 141.41-155.196 148.349-172.734 146.754-191.007 139.323-206.886 131.93-219.256 121.928-225.962 105.366-234.287 82.3651-235.591 55.8425-225.33 33.2521-211.095 3.90575-183.356-16.2311-153.25-27.0922-145.32-29.8327-137.328-31.9083-129.086-33.4574-127.307-33.7954-127.307-33.7954-125.493-34.1401-80.5267-41.1135-34.3384-30.2924 0 0Z" fill="#04FDFD" transform="matrix(1.00084 0 0 1 389.855 192.615)"/><path d="M0 0C1.99746 2.99619 1.99746 2.99619 1.93114 4.90001 0.598984 7.8876-1.43797 9.39528-3.93249 11.4854-7.96673 14.8753-10.5519 17.1141-11.3566 22.4168-11.6359 33.6873-6.88777 40.5401 0.630545 48.5364 5.79381 53.872 11.2461 58.912 17.0291 63.5714 28.0706 72.6215 35.4587 84.4039 39.9492 97.8754 41.0784 111.652 38.8951 122.967 29.7083 133.83 29.1328 134.489 28.5573 135.148 27.9644 135.827 27.322 136.658 26.6796 137.488 26.0177 138.343 20.5166 144.997 12.9398 149.66 5.74269 154.304 5.07033 154.749 4.39798 155.194 3.70525 155.652-0.293027 158.169-3.11351 159.548-7.98983 158.798-8.97857 157.809-8.97857 157.809-9.98729 156.8-9.89284 152.986-9.41113 151.269-6.81164 148.432-5.47916 147.353-5.47916 147.353-4.11976 146.251-0.0198072 142.898 3.38692 139.975 4.42796 134.583 4.44421 125.465-0.780611 120.819-6.6946 114.374-8.69622 112.178-10.6272 109.943-12.5465 107.675-15.3742 104.435-18.405 101.634-21.6716 98.8429-34.775 87.6305-50.2871 74.0947-52.1485 55.8196-52.7236 42.4767-44.923 31.9054-36.3288 22.409-28.0987 13.5856-12.8944-2.4177 0 0Z" fill="#03FDFD" transform="matrix(1.00084 0 0 1 294.646 209.094)"/><path d="M0 0C1.03766 0.542005 2.07533 1.08401 3.14444 1.64244 19.1963 9.92885 34.8133 14.9005 52.9326 9.98729 54.5702 9.43112 54.5702 9.43112 56.2409 8.86372 59.3265 7.8591 61.6939 7.62353 64.9174 7.98983 66.9148 10.986 66.9148 10.986 67.0397 13.4204 65.5833 16.7376 63.5987 17.6382 60.3568 19.0656 41.8443 25.9892 24.1099 24.3492 5.99237 16.9784 2.23005 15.1341-1.4091 13.1546-4.99364 10.986-2.92075 10.4332-1.15487 9.98729 0.998729 9.98729 1.65789 8.33939 2.31705 6.69148 2.99619 4.99364 2.25463 4.31388 2.25463 4.31388 1.49809 3.62039 0 1.99746 0 1.99746 0 0Z" fill="#0EF9F9" transform="matrix(1.00084 0 0 1 192.69 314.959)"/><path d="M0 0C0.329581 0.659161 0.659161 1.31832 0.998729 1.99746 0.339568 1.99746-0.319593 1.99746-0.998729 1.99746-1.30771 2.8935-1.30771 2.8935-1.62293 3.80765-3.49929 6.79276-5.8545 7.48682-8.98856 8.98856-9.9773 10.4717-9.9773 10.4717-10.986 11.9847-11.9748 11.9847-12.9635 11.9847-13.9822 11.9847-14.1985 12.8808-14.1985 12.8808-14.4191 13.7949-14.8683 15.5417-15.4093 17.2648-15.9797 18.9758-15.6501 19.635-15.3205 20.2942-14.9809 20.9733-15.3105 21.962-15.6401 22.9508-15.9797 23.9695-14.9909 24.2991-14.0022 24.6287-12.9835 24.9682-19.5357 30.8397-19.5357 30.8397-23.0605 31.1362-24.9682 30.8358-24.9682 30.8358-27.9644 29.9619-29.2591 25.5294-29.2591 25.5294-27.9878 23.119-19.7337 14.2389-10.3464 6.33616 0 0Z" fill="#09FBFA" transform="matrix(1.00084 0 0 1 208.684 379.876)"/><path d="M0 0C0 0.659161 0 1.31832 0 1.99746-4.39949 1.52067-8.7911 1.03556-13.1746 0.429141-26.1864-1.2725-38.8614-0.849237-51.9339 0-39.0342-8.59978-13.9292-3.99427 0 0Z" fill="#1CF4F8" transform="matrix(1.00084 0 0 1 304.642 202.103)"/><path d="M0 0C0.329581 0.659161 0.659161 1.31832 0.998729 1.99746 0.339568 1.99746-0.319593 1.99746-0.998729 1.99746-1.30771 2.8935-1.30771 2.8935-1.62293 3.80765-3.49929 6.79276-5.8545 7.48682-8.98856 8.98856-9.9773 10.4717-9.9773 10.4717-10.986 11.9847-11.9748 11.9847-12.9635 11.9847-13.9822 11.9847-14.1367 12.8808-14.1367 12.8808-14.2943 13.7949-15.1046 16.373-15.8609 17.3131-17.9771 18.9758-19.2439 19.4393-19.2439 19.4393-20.5364 19.9122-23.1193 20.7629-23.1193 20.7629-24.2816 23.0956-24.6215 24.0226-24.6215 24.0226-24.9682 24.9682-25.6274 24.9682-26.2865 24.9682-26.9657 24.9682-26.9657 25.957-26.9657 26.9457-26.9657 27.9644-27.6248 27.9644-28.284 27.9644-28.9631 27.9644-28.8498 24.2239-27.6164 22.3085-25.0931 19.7249-17.309 12.4024-8.85002 5.9704 0 0Z" fill="#20F3F5" transform="matrix(1.00084 0 0 1 208.684 379.876)"/><path d="M0 0C17.1194-0.541754 33.1493 0.552336 49.9364 3.99492 49.9364 4.3245 49.9364 4.65408 49.9364 4.99364 44.3162 5.19638 38.9426 5.09249 33.395 4.11976 22.3731 2.23796 11.1429 1.77477 0 0.998729 0 0.669148 0 0.339568 0 0Z" fill="#22F1F5" transform="matrix(1.00084 0 0 1 279.653 157.16)"/><path d="M0 0C0.659161 0.329581 1.31832 0.659161 1.99746 0.998729-0.497087 3.71338-2.51132 5.76474-5.87143 7.34222-9.3201 9.16367-11.2548 11.1064-13.7949 14.0446-14.5635 14.9214-15.3321 15.7981-16.124 16.7014-17.9935 18.8271-17.9935 18.8271-18.9758 20.9733-20.2942 20.9733-21.6125 20.9733-22.9708 20.9733-21.3953 16.9545-18.5586 14.4321-15.4179 11.6102-14.8871 11.1277-14.3564 10.6451-13.8096 10.148-9.49744 6.29693-4.9658 2.97195 0 0Z" fill="#29EEED" transform="matrix(1.00084 0 0 1 279.653 214.087)"/><path d="M0 0C2.99619 0.998729 2.99619 0.998729 4.05734 2.80892 4.68154 4.2654 5.30575 5.72188 5.92995 7.17836 6.92553 9.33207 6.92553 9.33207 9.98729 9.98729 10.7034 11.9673 11.3684 13.9664 11.9847 15.9797 12.6439 16.6388 13.3031 17.298 13.9822 17.9771 15.5265 22.4384 16.2096 26.2462 15.9797 30.9606 14.46 28.6812 13.354 26.7369 12.25 24.2738 11.9262 23.5626 11.6025 22.8514 11.2689 22.1186 10.9283 21.3699 10.5878 20.6211 10.237 19.8497 7.57971 14.0763 4.81148 8.70115 1.02994 3.56187 0 1.99746 0 1.99746 0 0Z" fill="#2CF0EF" transform="matrix(1.00084 0 0 1 394.603 267.02)"/><path d="M0 0C6.06557-0.505464 9.75986 0.957202 14.9809 3.99492 14.9809 4.65408 14.9809 5.31324 14.9809 5.99237 16.6288 5.99237 18.2767 5.99237 19.9746 5.99237 19.9746 6.65153 19.9746 7.3107 19.9746 7.98983 20.9633 7.98983 21.9521 7.98983 22.9708 7.98983 22.9708 8.64899 22.9708 9.30815 22.9708 9.98729 23.8359 10.2551 24.7011 10.5229 25.5924 10.7988 28.8812 11.9559 31.8707 13.3651 34.9555 14.9809 31.9593 15.9797 31.9593 15.9797 29.5456 15.0404 28.608 14.5522 27.6704 14.0639 26.7043 13.5609 25.6686 13.0304 24.6328 12.5 23.5657 11.9535 22.4836 11.3871 21.4016 10.8206 20.2867 10.237 13.6207 6.78083 7.11044 3.44052 0 0.998729 0 0.669148 0 0.339568 0 0Z" fill="#28F4F4" transform="matrix(1.00084 0 0 1 233.673 401.848)"/><path d="M0 0C0.659161 1.31832 1.31832 2.63664 1.99746 3.99492 0.0199746 4.98366 0.0199746 4.98366-1.99746 5.99237-1.68848 6.91932-1.68848 6.91932-1.37325 7.86499-1.24966 8.56535-1.12607 9.26571-0.998729 9.98729-1.65789 10.6465-2.31705 11.3056-2.99619 11.9847-3.30179 14.5506-3.50641 17.0259-3.62039 19.6001-3.65901 20.3056-3.69764 21.0111-3.73743 21.738-3.8316 23.4801-3.91435 25.2229-3.99492 26.9657-6.81997 21.9571-6.73292 17.1118-5.42279 11.5751-4.09219 7.38024-2.48233 3.66439 0 0Z" fill="#2CEEF0" transform="matrix(1.00084 0 0 1 248.666 244.049)"/><path d="M0 0C0.659161 0 1.31832 0 1.99746 0 3.00831 3.03256 3.41275 5.68927 3.74523 8.86372 3.86368 9.89108 3.98212 10.9184 4.10415 11.9769 3.94932 16.2348 2.08391 18.5591-0.436944 21.8472-0.951913 22.218-1.46688 22.5888-1.99746 22.9708-4.09245 22.5416-4.09245 22.5416-5.99237 21.972-5.57139 21.5742-5.1504 21.1764-4.71665 20.7665-4.1695 20.2374-3.62234 19.7083-3.05861 19.1631-2.51403 18.6417-1.96945 18.1203-1.40836 17.5831 1.03633 14.7998 1.13551 12.0928 1.12357 8.55162 1.12743 7.41031 1.12743 7.41031 1.13137 6.24596 1.00149 4.0417 0.607788 2.11761 0 0Z" fill="#26EDEC" transform="matrix(1.00084 0 0 1 297.645 332.936)"/><path d="M0 0C3.90591 3.90591 4.24797 8.69696 4.26801 14.0505 4.26028 14.7489 4.25256 15.4473 4.2446 16.1669 4.25232 16.8769 4.26005 17.587 4.26801 18.3185 4.25388 22.072 4.12875 23.7687 1.99746 26.9657 1.97243 26.3658 1.94741 25.766 1.92163 25.1479 1.80615 22.4453 1.68343 19.7431 1.56051 17.0408 1.52125 16.0965 1.48198 15.1522 1.44152 14.1792 1.39968 13.2812 1.35784 12.3833 1.31473 11.4581 1.25982 10.2107 1.25982 10.2107 1.20379 8.93809 1.2048 6.98772 1.2048 6.98772 0 5.99237-0.040756 3.99533-0.0424895 1.99701 0 0Z" fill="#2FEDEA" transform="matrix(1.00084 0 0 1 330.631 298.979)"/><path d="M0 0C1.99746 2.99619 1.99746 2.99619 1.8102 5.05607 0.998729 6.9911 0.998729 6.9911-1.99746 8.98856-2.32704 7.34066-2.65662 5.69275-2.99619 3.99492-5.30325 3.66533-7.61031 3.33575-9.98729 2.99619-7.29541-0.80411-4.37649-0.477436 0 0Z" fill="#1BF4F4" transform="matrix(1.00084 0 0 1 294.646 209.094)"/><path d="M0 0C-1.35967 4.44983-3.30336 6.24639-6.9911 8.98856-7.32068 9.64772-7.65026 10.3069-7.98983 10.986-10.301 11.7158-12.6322 12.3856-14.9809 12.9835-4.49428 0-4.49428 0 0 0Z" fill="#23F0ED" transform="matrix(1.00084 0 0 1 199.687 186.123)"/><path d="M0 0C5.2834 4.40283 10.1751 9.06406 14.9809 13.9822 14.6514 14.6414 14.3218 15.3005 13.9822 15.9797 11.0484 14.6688 11.0484 14.6688 7.98983 12.9835 7.66025 11.9947 7.33067 11.006 6.9911 9.98729 6.33194 9.65771 5.67278 9.32813 4.99364 8.98856 4.66406 7.99982 4.33448 7.01108 3.99492 5.99237 3.00617 5.66279 2.01743 5.33321 0.998729 4.99364 0.669148 3.34574 0.339568 1.69784 0 0Z" fill="#2AEDEE" transform="matrix(1.00084 0 0 1 389.605 193.114)"/><path d="M0 0C0.329581 0.659161 0.659161 1.31832 0.998729 1.99746 0.669148 2.65662 0.339568 3.31578 0 3.99492-0.0967126 5.76134-0.129629 7.5316-0.124841 9.30066-0.127416 10.2443-0.129991 11.188-0.132644 12.1603-0.00535618 14.867 0.393537 17.3377 0.998729 19.9746 0.339568 19.9746-0.319593 19.9746-0.998729 19.9746-3.30228 16.3219-3.29496 13.1196-3.30829 8.86372-3.32503 7.62522-3.34176 6.38671-3.35901 5.11068-3.23928 4.08332-3.11955 3.05595-2.99619 1.99746-2.00745 1.3383-1.0187 0.679136 0 0Z" fill="#2CF1F2" transform="matrix(1.00084 0 0 1 283.651 225.073)"/><path d="M0 0C2.83-0.054423 5.65892-0.093788 8.4892-0.124841 9.27967-0.141578 10.0702-0.158314 10.8846-0.175558 16.2593-0.219613 20.8035 0.493431 25.967 1.99746 25.967 2.65662 25.967 3.31578 25.967 3.99492 17.305 3.04997 8.65298 2.02199 0 0.998729 0 0.669148 0 0.339568 0 0Z" fill="#2EEFF2" transform="matrix(1.00084 0 0 1 278.653 200.105)"/><path d="M0 0C2.4344 0.374523 2.4344 0.374523 4.99364 0.998729 5.32323 1.65789 5.65281 2.31705 5.99237 2.99619 8.92339 4.34287 11.8354 5.29337 14.9809 5.99237 14.9809 7.96986 14.9809 9.94734 14.9809 11.9847 14.4853 11.6101 13.9896 11.2355 13.4789 10.8495 10.0182 8.24239 6.54704 5.66687 2.99619 3.18345 2.00745 2.46249 1.0187 1.74153 0 0.998729 0 0.669148 0 0.339568 0 0Z" fill="#25F3F0" transform="matrix(1.00084 0 0 1 352.621 225.073)"/><path d="M0 0C-4.00487 2.07149-7.14486 3.12423-11.6726 3.05861-12.8835 3.04509-12.8835 3.04509-14.1187 3.0313-15.0399 3.01392-15.0399 3.01392-15.9797 2.99619-15.9797 3.65535-15.9797 4.31451-15.9797 4.99364-18.6163 4.99364-21.253 4.99364-23.9695 4.99364-17.1804 0.467602-8.02693-0.472172 0 0Z" fill="#26EDF1" transform="matrix(1.00084 0 0 1 268.658 159.157)"/><path d="M0 0C6.30319 1.09789 12.0481 2.5781 17.9771 4.99364 17.9771 5.32323 17.9771 5.65281 17.9771 5.99237 12.7197 7.04385 12.7197 7.04385 9.98729 6.9911 7.86499 5.11849 7.86499 5.11849 5.99237 2.99619 2.85155 2.19405 2.85155 2.19405 0 1.99746 0 1.3383 0 0.679136 0 0Z" fill="#31EBEE" transform="matrix(1.00084 0 0 1 330.631 162.153)"/><path d="M0 0C7.46884 0.487656 14.6706 1.33236 21.972 2.99619 21.972 3.32577 21.972 3.65535 21.972 3.99492 13.6879 4.26456 7.44651 3.8278 0 0Z" fill="#29ECF0" transform="matrix(1.00084 0 0 1 307.641 158.159)"/><path d="M0 0C0.659161 0 1.31832 0 1.99746 0 4.01002 4.21329 4.40793 8.19842 4.61912 12.7962 4.65774 13.4882 4.69637 14.1802 4.73616 14.8932 4.82959 16.5866 4.91267 18.2805 4.99364 19.9746 4.66406 19.9746 4.33448 19.9746 3.99492 19.9746 3.32327 17.3959 2.65844 14.8158 1.99746 12.2344 1.71165 11.1414 1.71165 11.1414 1.42007 10.0263 0.53416 6.54595 0 3.61416 0 0Z" fill="#35EBEF" transform="matrix(1.00084 0 0 1 410.596 297.981)"/><path d="M0 0C-1.36809 3.15714-1.98654 3.98763-4.99364 5.99237-8.17709 6.11721-8.17709 6.11721-10.986 5.99237-10.986 6.65153-10.986 7.3107-10.986 7.98983-12.3043 7.66025-13.6227 7.33067-14.9809 6.9911-12.8613 5.82083-10.7388 4.65653-8.61404 3.49555-7.71026 2.99539-7.71026 2.99539-6.78824 2.48512-2.22373 0-2.22373 0 0 0Z" fill="#26EEF0" transform="matrix(1.00084 0 0 1 226.676 170.143)"/><path d="M0 0C0.329581 0.659161 0.659161 1.31832 0.998729 1.99746 0.339568 1.99746-0.319593 1.99746-0.998729 1.99746-1.20472 2.59482-1.4107 3.19219-1.62293 3.80765-3.49929 6.79276-5.8545 7.48682-8.98856 8.98856-9.9773 10.4717-9.9773 10.4717-10.986 11.9847-12.3043 11.6552-13.6227 11.3256-14.9809 10.986-12.8602 9.34021-10.7377 7.69682-8.61404 6.05479-8.01152 5.58682-7.40901 5.11884-6.78824 4.63668-2.22373 1.11187-2.22373 1.11187 0 0Z" fill="#30EFF0" transform="matrix(1.00084 0 0 1 208.684 379.876)"/><path d="M0 0C0.659161 0 1.31832 0 1.99746 0 1.80434 0.616676 1.61123 1.23335 1.41227 1.86872-0.329542 7.5339-1.77991 13.1752-2.99619 18.9758-3.32577 18.9758-3.65535 18.9758-3.99492 18.9758-4.37556 11.9973-3.13542 6.27084 0 0Z" fill="#29EAED" transform="matrix(1.00084 0 0 1 178.697 246.047)"/><path d="M0 0C1.99746 1.99746 1.99746 1.99746 2.1223 4.36944 0.586269 7.95351-1.44835 8.65921-4.91562 10.2058-7.25124 11.0838-9.50723 11.6751-11.9847 11.9847-10.7252 9.46565-9.61243 9.09952-7.11594 7.86499-6.41816 7.51224-5.72038 7.15948-5.00145 6.79604-2.99619 5.99237-2.99619 5.99237 0 5.99237 0 4.01489 0 2.03741 0 0Z" fill="#29ECED" transform="matrix(1.00084 0 0 1 257.662 323.948)"/><path d="M0 0C3.92483 2.61655 4.01176 4.45677 4.99364 8.98856 5.11849 12.4217 5.11849 12.4217 4.99364 14.9809 1.84497 10.2579-0.526012 5.78613 0 0Z" fill="#21F4F7" transform="matrix(1.00084 0 0 1 405.598 283)"/><path d="M0 0C0 0.988742 0 1.97748 0 2.99619-4.87174 6.24401-9.21219 6.10549-14.9809 5.99237-11.8217 4.32248-8.60685 3.07388-5.24333 1.87262-4.25973 1.51986-3.27614 1.16711-2.26275 0.803665-1.14269 0.405851-1.14269 0.405851 0 0Z" fill="#24F1F3" transform="matrix(1.00084 0 0 1 384.607 395.856)"/><path d="M0 0C0.329581 0.659161 0.659161 1.31832 0.998729 1.99746 0.0624206 4.11976 0.0624206 4.11976-0.998729 5.99237-1.65789 5.99237-2.31705 5.99237-2.99619 5.99237-2.99619 6.65153-2.99619 7.3107-2.99619 7.98983-4.99364 9.61277-4.99364 9.61277-6.9911 10.986-7.65026 10.6564-8.30942 10.3269-8.98856 9.98729-6.02234 6.69148-3.05611 3.39568 0 0Z" fill="#2DEDEC" transform="matrix(1.00084 0 0 1 183.694 199.106)"/><path d="M0 0C0.329581 0 0.659161 0 0.998729 0 1.32831 2.30706 1.65789 4.61413 1.99746 6.9911 1.00872 6.9911 0.0199746 6.9911-0.998729 6.9911-1.65789 9.62775-2.31705 12.2644-2.99619 14.9809-4.11059 10.5233-3.68517 9.38044-2.05988 5.24333-1.49019 3.76794-1.49019 3.76794-0.908999 2.26275-0.60903 1.51604-0.30906 0.769333 0 0Z" fill="#26EDF0" transform="matrix(1.00084 0 0 1 163.703 228.07)"/><path d="M0 0C7.4734 6.14252 7.4734 6.14252 9.98729 9.98729 6.5541 8.74753 3.64655 7.5469 0.998729 4.99364 0.249682 2.30956 0.249682 2.30956 0 0Z" fill="#2AF0EC" transform="matrix(1.00084 0 0 1 181.695 304.972)"/><path d="M0 0C-3.00058 2.00039-4.70395 2.48955-8.17709 3.12103-9.52696 3.37208-9.52696 3.37208-10.9041 3.62819-11.5903 3.74921-12.2765 3.87023-12.9835 3.99492-9.40224-0.98767-5.61057-0.431583 0 0Z" fill="#26F3F6" transform="matrix(1.00084 0 0 1 241.669 204.1)"/><path d="M0 0C2.63664 0.329581 5.27329 0.659161 7.98983 0.998729 5.37118 3.14977 3.35169 4.39513 0 4.99364 0 3.34574 0 1.69784 0 0Z" fill="#20F3F1" transform="matrix(1.00084 0 0 1 215.68 209.094)"/><path d="M0 0C1.6479 0 3.29581 0 4.99364 0 5.72352 1.97495 6.38609 3.97566 6.9911 5.99237 6.66152 6.65153 6.33194 7.3107 5.99237 7.98983 4.01489 5.35319 2.03741 2.71654 0 0Z" fill="#27F3EF" transform="matrix(1.00084 0 0 1 290.648 324.946)"/><path d="M0 0C4.8153 5.77836 4.8153 5.77836 5.99237 8.98856 5.66279 9.9773 5.33321 10.966 4.99364 11.9847 4.01832 10.2292 3.043 8.47359 2.06768 6.71801 0.989767 4.83259 0.989767 4.83259-0.998729 2.99619-0.669148 2.00745-0.339568 1.0187 0 0Z" fill="#2CEFEF" transform="matrix(1.00084 0 0 1 421.591 233.063)"/><path d="M0 0C0.926945 0.205988 1.85389 0.411976 2.80892 0.624206 1.62293 2.1223 1.62293 2.1223-0.187262 3.62039-2.87135 3.80765-2.87135 3.80765-5.18091 3.62039-5.51049 2.96123-5.84007 2.30207-6.17964 1.62293-3.18345-0.374523-3.18345-0.374523 0 0Z" fill="#23F0F0" transform="matrix(1.00084 0 0 1 187.88 407.217)"/><path d="M0 0C3.98993 1.36798 6.79145 3.25308 9.98729 5.99237 8.33939 5.99237 6.69148 5.99237 4.99364 5.99237 4.99364 5.33321 4.99364 4.67405 4.99364 3.99492 4.0049 3.99492 3.01616 3.99492 1.99746 3.99492 1.99746 3.33575 1.99746 2.67659 1.99746 1.99746 1.3383 1.99746 0.679136 1.99746 0 1.99746 0 1.3383 0 0.679136 0 0Z" fill="#23EFF0" transform="matrix(1.00084 0 0 1 293.647 375.881)"/><path d="M0 0C0.988742 0 1.97748 0 2.99619 0 1.64768 4.41328-0.260825 6.33539-3.99492 8.98856-3.99492 7.99982-3.99492 7.01108-3.99492 5.99237-3.33575 5.99237-2.67659 5.99237-1.99746 5.99237-1.66788 5.00363-1.3383 4.01489-0.998729 2.99619-0.669148 2.00745-0.339568 1.0187 0 0Z" fill="#2AF0EC" transform="matrix(1.00084 0 0 1 324.633 336.931)"/><path d="M0 0C3.38986 3.12224 5.59915 5.55834 6.9911 9.98729 5.10288 9.77272 5.10288 9.77272 2.99619 8.98856 1.95064 6.92478 1.95064 6.92478 1.24841 4.43186 1.00638 3.60662 0.76434 2.78138 0.51497 1.93114 0.34503 1.29386 0.17509 0.656586 0 0Z" fill="#2AF0EB" transform="matrix(1.00084 0 0 1 407.597 212.09)"/><path d="M0 0C4.44934 2.96622 4.44934 2.96622 8.98856 5.99237 7.67024 6.32195 6.35192 6.65153 4.99364 6.9911 2.24714 4.68154 2.24714 4.68154 0 1.99746 0 1.3383 0 0.679136 0 0Z" fill="#2EEBEE" transform="matrix(1.00084 0 0 1 375.611 182.128)"/><path d="M0 0C1.31458 2.62916 0.747186 3.79696 0.0624206 6.61658-0.13198 7.43281-0.326381 8.24903-0.526673 9.08999-0.682452 9.71568-0.83823 10.3414-0.998729 10.986-3.296 7.54011-3.42696 6.04676-2.99619 1.99746-2.00745 1.3383-1.0187 0.679136 0 0Z" fill="#22EFEC" transform="matrix(1.00084 0 0 1 283.651 225.073)"/><path d="M0 0C0.659161 0 1.31832 0 1.99746 0 1.99746 0.659161 1.99746 1.31832 1.99746 1.99746 2.9862 2.32704 3.97494 2.65662 4.99364 2.99619 5.32323 4.97367 5.65281 6.95115 5.99237 8.98856 2.91539 6.21928 1.31058 3.93173 0 0Z" fill="#2DECF0" transform="matrix(1.00084 0 0 1 246.667 277.007)"/><path d="M0 0C0.659161 0.329581 1.31832 0.659161 1.99746 0.998729 0.376123 2.7054-1.29155 4.36891-2.99619 5.99237-3.65535 5.99237-4.31451 5.99237-4.99364 5.99237-4.99364 5.00363-4.99364 4.01489-4.99364 2.99619-2.62166 1.24841-2.62166 1.24841 0 0Z" fill="#1FF3F3" transform="matrix(1.00084 0 0 1 279.653 214.087)"/><path d="M0 0C4.67098 1.47505 4.67098 1.47505 6.30448 4.11976 6.53106 4.73772 6.75765 5.35568 6.9911 5.99237 4.68404 5.00363 2.37697 4.01489 0 2.99619 0 2.00745 0 1.0187 0 0Z" fill="#20F4F4" transform="matrix(1.00084 0 0 1 397.602 203.101)"/><path d="M0 0C0.659161 1.31832 1.31832 2.63664 1.99746 3.99492 1.00872 3.99492 0.0199746 3.99492-0.998729 3.99492-0.998729 4.65408-0.998729 5.31324-0.998729 5.99237-2.31705 5.66279-3.63537 5.33321-4.99364 4.99364-3.34574 3.34574-1.69784 1.69784 0 0Z" fill="#26EFEF" transform="matrix(1.00084 0 0 1 397.602 384.87)"/><path d="M0 0C3.33948 0.556581 6.02546 1.35002 8.98856 2.99619 8.98856 3.65535 8.98856 4.31451 8.98856 4.99364 5.21791 3.90434 2.52635 3.08776 0 0Z" fill="#33ECEB" transform="matrix(1.00084 0 0 1 187.693 324.946)"/><path d="M0 0C1.6479 0 3.29581 0 4.99364 0 4.99364 0.659161 4.99364 1.31832 4.99364 1.99746 5.65281 1.99746 6.31197 1.99746 6.9911 1.99746 6.9911 2.9862 6.9911 3.97494 6.9911 4.99364 3.34258 3.74547 2.21652 3.32478 0 0Z" fill="#26F2F3" transform="matrix(1.00084 0 0 1 177.697 317.955)"/><path d="M0 0C1.31832 0 2.63664 0 3.99492 0 4.3245 1.97748 4.65408 3.95497 4.99364 5.99237 3.28832 4.71338 1.6242 3.37803 0 1.99746 0 1.3383 0 0.679136 0 0Z" fill="#1FF3ED" transform="matrix(1.00084 0 0 1 258.662 292.987)"/><path d="M0 0C-1.30241 2.01664-2.63488 4.01414-3.99492 5.99237-4.3245 5.99237-4.65408 5.99237-4.99364 5.99237-5.32323 4.01489-5.65281 2.03741-5.99237 0-2.99619-0.998729-2.99619-0.998729 0 0Z" fill="#23EEEF" transform="matrix(1.00084 0 0 1 185.693 239.056)"/><path d="M0 0C3.37071-0.124841 3.37071-0.124841 6.9911 0 7.65026 0.659161 8.30942 1.31832 8.98856 1.99746 6.35192 2.32704 3.71527 2.65662 0.998729 2.99619 0.669148 2.00745 0.339568 1.0187 0 0Z" fill="#1AF3F6" transform="matrix(1.00084 0 0 1 339.627 166.148)"/><path d="M0 0C0.659161 0 1.31832 0 1.99746 0 2.65662 2.30706 3.31578 4.61413 3.99492 6.9911 3.00617 6.66152 2.01743 6.33194 0.998729 5.99237 0.669148 4.01489 0.339568 2.03741 0 0Z" fill="#21F3F5" transform="matrix(1.00084 0 0 1 410.596 297.981)"/><path d="M0 0C3.23796 0.35005 4.60941 0.561497 6.80384 3.05861 7.19522 3.69717 7.58659 4.33573 7.98983 4.99364 7.66025 5.65281 7.33067 6.31197 6.9911 6.9911 5.82299 6.01668 4.65846 5.03796 3.49555 4.05734 2.84669 3.51276 2.19783 2.96818 1.5293 2.40709 1.02463 1.94233 0.519963 1.47757 0 0.998729 0 0.669148 0 0.339568 0 0Z" fill="#2DF3F2" transform="matrix(1.00084 0 0 1 367.615 237.058)"/><path d="M0 0C0.329581 1.31832 0.659161 2.63664 0.998729 3.99492-0.936308 6.24206-0.936308 6.24206-2.99619 7.98983-3.65535 7.66025-4.31451 7.33067-4.99364 6.9911-3.34574 4.68404-1.69784 2.37697 0 0Z" fill="#29EEED" transform="matrix(1.00084 0 0 1 173.699 211.091)"/></g></svg>