<?xml version="1.0" encoding="UTF-8"?>
<svg version="1.1" xmlns="http://www.w3.org/2000/svg" width="900" height="600">
<path d="M0 0 C1.59489695 1.48769895 3.17823155 2.98788612 4.75 4.5 C6.01457031 5.70462891 6.01457031 5.70462891 7.3046875 6.93359375 C34.25824498 33.19078272 50.25391771 69.52635085 51.03564453 107.14013672 C51.3744943 146.37894007 36.26528396 178.01892775 9.75 206.5 C9.06421875 207.25152344 8.3784375 208.00304687 7.671875 208.77734375 C-6.5801347 223.79473915 -25.48356291 233.8739747 -45.25 239.5 C-45.84683594 239.67813232 -46.44367188 239.85626465 -47.05859375 240.03979492 C-62.38042972 243.25744875 -80.44772805 241.33067076 -95.25 236.5 C-96.68599743 236.07874306 -98.12220388 235.65819811 -99.55859375 235.23828125 C-112.38549407 231.2751119 -124.2715528 225.32876737 -136.21289062 219.27441406 C-151.26605822 211.69994335 -168.49323423 203.80177328 -185.62109375 208.40625 C-191.32023136 210.67138495 -195.71724015 213.53675711 -200.42578125 217.40625 C-202.62493425 218.72479998 -203.73912484 218.73584433 -206.25 218.375 C-207.24 218.08625 -208.23 217.7975 -209.25 217.5 C-210.54635527 213.0618896 -210.54635527 213.0618896 -209.2734375 210.6484375 C-192.41605361 192.51276857 -165.58240632 171.06393298 -139.91796875 169.47265625 C-118.86451484 169.68843103 -100.09940834 179.63443422 -82.6875 190.5625 C-62.70764926 203.03748143 -40.48165406 212.03149798 -16.53515625 207.8515625 C-3.80431581 204.30933103 6.36388607 196.36058155 12.8828125 184.859375 C17.41999786 176.40144713 20.58120171 167.87149154 22.75 158.5 C23.08644531 157.20642578 23.08644531 157.20642578 23.4296875 155.88671875 C29.17799908 130.57052459 21.91704855 104.21219434 8.75 82.5 C-0.69576695 67.90509655 -11.57550645 53.39019601 -25.25 42.5 C-26.27222656 41.67886719 -27.29445313 40.85773438 -28.34765625 40.01171875 C-43.24573838 28.3978917 -60.14851231 19.84886835 -78.25 14.5 C-79.22864014 14.20488525 -79.22864014 14.20488525 -80.22705078 13.90380859 C-113.62930427 4.04835871 -148.46431291 8.64867351 -179.25 24.5 C-183.84868122 27.15544031 -188.09361061 30.19419247 -192.25 33.5 C-193.26964844 34.30308594 -194.28929687 35.10617187 -195.33984375 35.93359375 C-206.93803918 46.161801 -213.15014786 60.98804572 -214.48632812 76.18847656 C-215.22821543 89.74435402 -214.99078489 102.76737724 -205.9375 113.69921875 C-194.21486989 126.20878467 -179.36486562 133.26649617 -162.25 134.5 C-154.48820656 134.5 -147.38614622 133.92867959 -140.1171875 131.14453125 C-137.38715584 130.20215631 -135.09296393 130.0839565 -132.25 130.5 C-130.25 133.5 -130.25 133.5 -130.125 135.9375 C-131.58318457 139.25892041 -133.57033243 140.16064547 -136.81640625 141.58984375 C-155.3939635 148.53779052 -172.95346729 146.94032822 -191.25 139.5 C-207.14917955 132.09804863 -219.53476913 122.08349129 -226.25 105.5 C-234.58498684 82.46987956 -235.89131702 55.91356878 -225.61669922 33.29443359 C-211.36346007 3.91072492 -183.58937033 -16.25177779 -153.44482422 -27.12670898 C-145.50464314 -29.87068338 -137.50318003 -31.94886325 -129.25 -33.5 C-127.46916016 -33.83837891 -127.46916016 -33.83837891 -125.65234375 -34.18359375 C-80.62920339 -41.16579199 -34.38215277 -30.33092237 0 0 Z " fill="#04FDFD" transform="translate(772.25,293.5)"/>
<path d="M0 0 C2 3 2 3 1.93359375 4.90625 C0.59974663 7.89763935 -1.43980486 9.40723965 -3.9375 11.5 C-7.97686783 14.89423139 -10.56534577 17.13585742 -11.37109375 22.4453125 C-11.65074773 33.73017292 -6.89653214 40.59165756 0.63134766 48.59814453 C5.8011857 53.9405982 11.26045105 58.98699199 17.05078125 63.65234375 C28.10637397 72.71394179 35.50378729 84.51136187 40 98 C41.13068754 111.79438805 38.94460337 123.12324036 29.74609375 134 C29.16988281 134.66 28.59367188 135.32 28 136 C27.35675781 136.83144531 26.71351563 137.66289062 26.05078125 138.51953125 C20.54276084 145.18161308 12.95622003 149.85005164 5.75 154.5 C5.07678711 154.94561279 4.40357422 155.39122559 3.70996094 155.8503418 C-0.29340011 158.37000539 -3.11747128 159.75115826 -8 159 C-8.99 158.01 -8.99 158.01 -10 157 C-9.90542865 153.18036814 -9.42310347 151.46177421 -6.8203125 148.62109375 C-5.48613281 147.54021484 -5.48613281 147.54021484 -4.125 146.4375 C-0.01983243 143.08035859 3.39122802 140.15354856 4.43359375 134.75390625 C4.44986711 125.62455091 -0.78160401 120.97321507 -6.703125 114.51953125 C-8.70728703 112.3210882 -10.64069787 110.08251858 -12.5625 107.8125 C-15.39377494 104.56752279 -18.42847221 101.76317422 -21.69921875 98.96875 C-34.81928348 87.74207322 -50.35111468 74.18905582 -52.21484375 55.890625 C-52.79069781 42.53081085 -44.98017971 31.94599357 -36.375 22.4375 C-28.13446418 13.60286389 -12.91081357 -2.42077755 0 0 Z " fill="#03FDFD" transform="translate(677,310)"/>
<path d="M0 0 C1.03898438 0.54269531 2.07796875 1.08539063 3.1484375 1.64453125 C19.22076963 9.94148636 34.85763328 14.91943277 53 10 C54.6396875 9.443125 54.6396875 9.443125 56.3125 8.875 C59.40204731 7.86910088 61.77242385 7.63322998 65 8 C67 11 67 11 67.125 13.4375 C65.66681543 16.75892041 63.67966757 17.66064547 60.43359375 19.08984375 C41.89751097 26.0222792 24.14057888 24.38023551 6 17 C2.23288702 15.15337599 -1.41089543 13.17137096 -5 11 C-2.92446352 10.4465236 -1.15634036 10 1 10 C1.66 8.35 2.32 6.7 3 5 C2.2575 4.319375 2.2575 4.319375 1.5 3.625 C0 2 0 2 0 0 Z " fill="#0EF9F9" transform="translate(575,416)"/>
<path d="M0 0 C0.33 0.66 0.66 1.32 1 2 C0.34 2 -0.32 2 -1 2 C-1.309375 2.8971875 -1.309375 2.8971875 -1.625 3.8125 C-3.50374155 6.80140701 -5.86194833 7.49635024 -9 9 C-9.99 10.485 -9.99 10.485 -11 12 C-11.99 12 -12.98 12 -14 12 C-14.2165625 12.8971875 -14.2165625 12.8971875 -14.4375 13.8125 C-14.8872439 15.56150404 -15.42892341 17.28677023 -16 19 C-15.67 19.66 -15.34 20.32 -15 21 C-15.33 21.99 -15.66 22.98 -16 24 C-15.01 24.33 -14.02 24.66 -13 25 C-19.56053812 30.87892377 -19.56053812 30.87892377 -23.08984375 31.17578125 C-25 30.875 -25 30.875 -28 30 C-29.29635527 25.5618896 -29.29635527 25.5618896 -28.0234375 23.1484375 C-19.75877387 14.25706952 -10.35955298 6.34422237 0 0 Z " fill="#09FBFA" transform="translate(591,481)"/>
<path d="M0 0 C0 0.66 0 1.32 0 2 C-4.40508742 1.52260136 -8.80229168 1.03688139 -13.19140625 0.4296875 C-26.21976408 -1.27412376 -38.91081375 -0.85031817 -52 0 C-39.0839076 -8.61072826 -13.94691423 -3.99935815 0 0 Z " fill="#1CF4F8" transform="translate(687,303)"/>
<path d="M0 0 C0.33 0.66 0.66 1.32 1 2 C0.34 2 -0.32 2 -1 2 C-1.309375 2.8971875 -1.309375 2.8971875 -1.625 3.8125 C-3.50374155 6.80140701 -5.86194833 7.49635024 -9 9 C-9.99 10.485 -9.99 10.485 -11 12 C-11.99 12 -12.98 12 -14 12 C-14.1546875 12.8971875 -14.1546875 12.8971875 -14.3125 13.8125 C-15.12378323 16.39385573 -15.88112703 17.33517123 -18 19 C-19.2684375 19.4640625 -19.2684375 19.4640625 -20.5625 19.9375 C-23.14871695 20.78929161 -23.14871695 20.78929161 -24.3125 23.125 C-24.6528125 24.053125 -24.6528125 24.053125 -25 25 C-25.66 25 -26.32 25 -27 25 C-27 25.99 -27 26.98 -27 28 C-27.66 28 -28.32 28 -29 28 C-28.88650661 24.25471815 -27.65154841 22.3368479 -25.125 19.75 C-17.33101144 12.41823162 -8.86128061 5.97800058 0 0 Z " fill="#20F3F5" transform="translate(591,481)"/>
<path d="M0 0 C17.14122084 -0.5424437 33.19147947 0.5530386 50 4 C50 4.33 50 4.66 50 5 C44.37255751 5.20299392 38.99218017 5.09897132 33.4375 4.125 C22.40153394 2.24081067 11.15704554 1.77703307 0 1 C0 0.67 0 0.34 0 0 Z " fill="#22F1F5" transform="translate(662,258)"/>
<path d="M0 0 C0.66 0.33 1.32 0.66 2 1 C-0.49772013 3.7181072 -2.51451717 5.77207997 -5.87890625 7.3515625 C-9.33196344 9.17532988 -11.26916233 11.12054723 -13.8125 14.0625 C-14.58207031 14.94035156 -15.35164062 15.81820313 -16.14453125 16.72265625 C-18.01644932 18.85102149 -18.01644932 18.85102149 -19 21 C-20.32 21 -21.64 21 -23 21 C-21.42255149 16.97608943 -18.5822499 14.45049832 -15.4375 11.625 C-14.90608398 11.14184326 -14.37466797 10.65868652 -13.82714844 10.16088867 C-9.50953174 6.30494875 -4.97211587 2.97573602 0 0 Z " fill="#29EEED" transform="translate(662,315)"/>
<path d="M0 0 C3 1 3 1 4.0625 2.8125 C4.6875 4.27083333 5.3125 5.72916667 5.9375 7.1875 C6.93434552 9.34395107 6.93434552 9.34395107 10 10 C10.71706982 11.98248715 11.38290413 13.98415349 12 16 C12.66 16.66 13.32 17.32 14 18 C15.54624614 22.4669333 16.23026319 26.27960464 16 31 C14.47845288 28.71767933 13.37096718 26.77088122 12.265625 24.3046875 C11.94142578 23.59256104 11.61722656 22.88043457 11.28320312 22.14672852 C10.94224609 21.39705811 10.60128906 20.6473877 10.25 19.875 C7.58935528 14.09420013 4.81760438 8.71222297 1.03125 3.56640625 C0 2 0 2 0 0 Z " fill="#2CF0EF" transform="translate(777,368)"/>
<path d="M0 0 C6.07328688 -0.50610724 9.77228537 0.95842058 15 4 C15 4.66 15 5.32 15 6 C16.65 6 18.3 6 20 6 C20 6.66 20 7.32 20 8 C20.99 8 21.98 8 23 8 C23 8.66 23 9.32 23 10 C23.86625 10.268125 24.7325 10.53625 25.625 10.8125 C28.91791964 11.97111987 31.91127875 13.38209839 35 15 C32 16 32 16 29.58325195 15.05957031 C28.64441162 14.57069336 27.70557129 14.08181641 26.73828125 13.578125 C25.70123047 13.04703125 24.66417969 12.5159375 23.59570312 11.96875 C22.51224609 11.4015625 21.42878906 10.834375 20.3125 10.25 C13.63802939 6.78946285 7.1194856 3.44490195 0 1 C0 0.67 0 0.34 0 0 Z " fill="#28F4F4" transform="translate(616,503)"/>
<path d="M0 0 C0.66 1.32 1.32 2.64 2 4 C0.02 4.99 0.02 4.99 -2 6 C-1.690625 6.928125 -1.690625 6.928125 -1.375 7.875 C-1.25125 8.57625 -1.1275 9.2775 -1 10 C-1.66 10.66 -2.32 11.32 -3 12 C-3.30599063 14.56916657 -3.51087087 17.04758384 -3.625 19.625 C-3.66367187 20.33140625 -3.70234375 21.0378125 -3.7421875 21.765625 C-3.83647724 23.50998524 -3.91932891 25.25495691 -4 27 C-6.82865204 21.98505913 -6.74148847 17.13355059 -5.4296875 11.58984375 C-4.09740156 7.38963702 -2.48548778 3.66905339 0 0 Z " fill="#2CEEF0" transform="translate(631,345)"/>
<path d="M0 0 C0.66 0 1.32 0 2 0 C3.01214017 3.0364205 3.41709048 5.69650669 3.75 8.875 C3.86859375 9.90367187 3.9871875 10.93234375 4.109375 11.9921875 C3.95434561 16.25549569 2.08655894 18.58274921 -0.4375 21.875 C-0.953125 22.24625 -1.46875 22.6175 -2 23 C-4.09765625 22.5703125 -4.09765625 22.5703125 -6 22 C-5.57847656 21.60167969 -5.15695312 21.20335937 -4.72265625 20.79296875 C-4.17480469 20.26316406 -3.62695312 19.73335938 -3.0625 19.1875 C-2.51722656 18.66542969 -1.97195313 18.14335937 -1.41015625 17.60546875 C1.03764397 14.81863803 1.13695845 12.1081811 1.125 8.5625 C1.12886719 7.41974609 1.12886719 7.41974609 1.1328125 6.25390625 C1.00276015 4.04684141 0.60856199 2.12030724 0 0 Z " fill="#26EDEC" transform="translate(680,434)"/>
<path d="M0 0 C3.91088341 3.91088341 4.25338014 8.7080289 4.2734375 14.06835938 C4.26570312 14.76767578 4.25796875 15.46699219 4.25 16.1875 C4.25773438 16.89841797 4.26546875 17.60933594 4.2734375 18.34179688 C4.25929517 22.10012031 4.13400293 23.7989956 2 27 C1.97494385 26.39937744 1.9498877 25.79875488 1.92407227 25.17993164 C1.8084472 22.47388563 1.68557064 19.76821717 1.5625 17.0625 C1.52318359 16.11697266 1.48386719 15.17144531 1.44335938 14.19726562 C1.40146484 13.29814453 1.35957031 12.39902344 1.31640625 11.47265625 C1.26141968 10.22367554 1.26141968 10.22367554 1.20532227 8.94946289 C1.20632897 6.99661142 1.20632897 6.99661142 0 6 C-0.04080783 4.00041636 -0.04254356 1.99954746 0 0 Z " fill="#2FEDEA" transform="translate(713,400)"/>
<path d="M0 0 C2 3 2 3 1.8125 5.0625 C1 7 1 7 -2 9 C-2.33 7.35 -2.66 5.7 -3 4 C-5.31 3.67 -7.62 3.34 -10 3 C-7.3046972 -0.80513337 -4.38206487 -0.47804344 0 0 Z " fill="#1BF4F4" transform="translate(677,310)"/>
<path d="M0 0 C-1.36140127 4.45549507 -3.30756614 6.25434405 -7 9 C-7.33 9.66 -7.66 10.32 -8 11 C-10.3140622 11.73075648 -12.64828869 12.40138258 -15 13 C-4.5 0 -4.5 0 0 0 Z " fill="#23F0ED" transform="translate(582,287)"/>
<path d="M0 0 C5.29012124 4.40843437 10.18808428 9.07559794 15 14 C14.67 14.66 14.34 15.32 14 16 C11.0625 14.6875 11.0625 14.6875 8 13 C7.67 12.01 7.34 11.02 7 10 C6.34 9.67 5.68 9.34 5 9 C4.67 8.01 4.34 7.02 4 6 C3.01 5.67 2.02 5.34 1 5 C0.67 3.35 0.34 1.7 0 0 Z " fill="#2AEDEE" transform="translate(772,294)"/>
<path d="M0 0 C0.33 0.66 0.66 1.32 1 2 C0.67 2.66 0.34 3.32 0 4 C-0.09683564 5.76867455 -0.12979382 7.54118303 -0.125 9.3125 C-0.12757813 10.25738281 -0.13015625 11.20226562 -0.1328125 12.17578125 C-0.005363 14.88595736 0.39403774 17.35973585 1 20 C0.34 20 -0.32 20 -1 20 C-3.3064788 16.34271489 -3.29915568 13.13628693 -3.3125 8.875 C-3.32925781 7.63492187 -3.34601562 6.39484375 -3.36328125 5.1171875 C-3.24339844 4.08851563 -3.12351562 3.05984375 -3 2 C-2.01 1.34 -1.02 0.68 0 0 Z " fill="#2CF1F2" transform="translate(666,326)"/>
<path d="M0 0 C2.83359844 -0.05449228 5.66612485 -0.09390733 8.5 -0.125 C9.29148437 -0.14175781 10.08296875 -0.15851563 10.8984375 -0.17578125 C16.27998079 -0.21989226 20.82999927 0.49405942 26 2 C26 2.66 26 3.32 26 4 C17.32701485 3.05385617 8.66399563 2.02455976 0 1 C0 0.67 0 0.34 0 0 Z " fill="#2EEFF2" transform="translate(661,301)"/>
<path d="M0 0 C2.4375 0.375 2.4375 0.375 5 1 C5.33 1.66 5.66 2.32 6 3 C8.9347497 4.34839851 11.85047161 5.3001048 15 6 C15 7.98 15 9.96 15 12 C14.50371094 11.62488281 14.00742187 11.24976563 13.49609375 10.86328125 C10.03090771 8.25288493 6.55537475 5.67408111 3 3.1875 C2.01 2.465625 1.02 1.74375 0 1 C0 0.67 0 0.34 0 0 Z " fill="#25F3F0" transform="translate(735,326)"/>
<path d="M0 0 C-4.00996859 2.07412169 -7.15394977 3.12820363 -11.6875 3.0625 C-12.89986328 3.04896484 -12.89986328 3.04896484 -14.13671875 3.03515625 C-15.05904297 3.01775391 -15.05904297 3.01775391 -16 3 C-16 3.66 -16 4.32 -16 5 C-18.64 5 -21.28 5 -24 5 C-17.20229547 0.46819698 -8.03714304 -0.47277312 0 0 Z " fill="#26EDF1" transform="translate(651,260)"/>
<path d="M0 0 C6.31121503 1.0992895 12.06338584 2.58137942 18 5 C18 5.33 18 5.66 18 6 C12.73591549 7.0528169 12.73591549 7.0528169 10 7 C7.875 5.125 7.875 5.125 6 3 C2.85518209 2.19684346 2.85518209 2.19684346 0 2 C0 1.34 0 0.68 0 0 Z " fill="#31EBEE" transform="translate(713,263)"/>
<path d="M0 0 C7.47834967 0.48827713 14.68925318 1.33405548 22 3 C22 3.33 22 3.66 22 4 C13.70531314 4.26998981 7.45599017 3.83266881 0 0 Z " fill="#29ECF0" transform="translate(690,259)"/>
<path d="M0 0 C0.66 0 1.32 0 2 0 C4.01512227 4.21865028 4.41354068 8.20885432 4.625 12.8125 C4.66367187 13.50537109 4.70234375 14.19824219 4.7421875 14.91210938 C4.83573568 16.60767015 4.91892364 18.30379712 5 20 C4.67 20 4.34 20 4 20 C3.32749476 17.41806023 2.66182099 14.83467929 2 12.25 C1.71382812 11.15558594 1.71382812 11.15558594 1.421875 10.0390625 C0.53484036 6.55428354 0 3.61876278 0 0 Z " fill="#35EBEF" transform="translate(793,399)"/>
<path d="M0 0 C-1.36983503 3.16115776 -1.9890638 3.9927092 -5 6 C-8.1875 6.125 -8.1875 6.125 -11 6 C-11 6.66 -11 7.32 -11 8 C-12.32 7.67 -13.64 7.34 -15 7 C-12.87767021 5.82823482 -10.75242209 4.66245215 -8.625 3.5 C-7.72007812 2.99919922 -7.72007812 2.99919922 -6.796875 2.48828125 C-2.2265625 0 -2.2265625 0 0 0 Z " fill="#26EEF0" transform="translate(609,271)"/>
<path d="M0 0 C0.33 0.66 0.66 1.32 1 2 C0.34 2 -0.32 2 -1 2 C-1.20625 2.598125 -1.4125 3.19625 -1.625 3.8125 C-3.50374155 6.80140701 -5.86194833 7.49635024 -9 9 C-9.99 10.485 -9.99 10.485 -11 12 C-12.32 11.67 -13.64 11.34 -15 11 C-12.87657342 9.35210134 -10.7513551 7.70661212 -8.625 6.0625 C-8.02171875 5.59392578 -7.4184375 5.12535156 -6.796875 4.64257812 C-2.2265625 1.11328125 -2.2265625 1.11328125 0 0 Z " fill="#30EFF0" transform="translate(591,481)"/>
<path d="M0 0 C0.66 0 1.32 0 2 0 C1.80664062 0.61746094 1.61328125 1.23492187 1.4140625 1.87109375 C-0.32996151 7.54348868 -1.78217894 13.19193035 -3 19 C-3.33 19 -3.66 19 -4 19 C-4.38113277 12.01256592 -3.13941257 6.27882515 0 0 Z " fill="#29EAED" transform="translate(561,347)"/>
<path d="M0 0 C2 2 2 2 2.125 4.375 C0.58701555 7.96363038 -1.45019321 8.67023006 -4.921875 10.21875 C-7.2604681 11.09792034 -9.51933436 11.6899168 -12 12 C-10.73884686 9.47769373 -9.62466575 9.11109845 -7.125 7.875 C-6.42632813 7.52179688 -5.72765625 7.16859375 -5.0078125 6.8046875 C-3 6 -3 6 0 6 C0 4.02 0 2.04 0 0 Z " fill="#29ECED" transform="translate(640,425)"/>
<path d="M0 0 C3.92982637 2.61988425 4.01686331 4.46244606 5 9 C5.125 12.4375 5.125 12.4375 5 15 C1.84731686 10.27097529 -0.52668153 5.79349678 0 0 Z " fill="#21F4F7" transform="translate(788,384)"/>
<path d="M0 0 C0 0.99 0 1.98 0 3 C-4.87793583 6.25195722 -9.22391379 6.11325659 -15 6 C-11.8367155 4.3279782 -8.6178082 3.07778864 -5.25 1.875 C-4.26515625 1.52179688 -3.2803125 1.16859375 -2.265625 0.8046875 C-1.14414062 0.40636719 -1.14414062 0.40636719 0 0 Z " fill="#24F1F3" transform="translate(767,497)"/>
<path d="M0 0 C0.33 0.66 0.66 1.32 1 2 C0.0625 4.125 0.0625 4.125 -1 6 C-1.66 6 -2.32 6 -3 6 C-3 6.66 -3 7.32 -3 8 C-5 9.625 -5 9.625 -7 11 C-7.66 10.67 -8.32 10.34 -9 10 C-6.03 6.7 -3.06 3.4 0 0 Z " fill="#2DEDEC" transform="translate(566,300)"/>
<path d="M0 0 C0.33 0 0.66 0 1 0 C1.33 2.31 1.66 4.62 2 7 C1.01 7 0.02 7 -1 7 C-1.66 9.64 -2.32 12.28 -3 15 C-4.11581881 10.53672476 -3.68986512 9.39238394 -2.0625 5.25 C-1.49208984 3.77273438 -1.49208984 3.77273438 -0.91015625 2.265625 C-0.60980469 1.51796875 -0.30945313 0.7703125 0 0 Z " fill="#26EDF0" transform="translate(546,329)"/>
<path d="M0 0 C7.48291572 6.15034169 7.48291572 6.15034169 10 10 C6.56244012 8.75865893 3.65119317 7.5565077 1 5 C0.25 2.3125 0.25 2.3125 0 0 Z " fill="#2AF0EC" transform="translate(564,406)"/>
<path d="M0 0 C-3.00440021 2.00293347 -4.70993945 2.49271626 -8.1875 3.125 C-9.53908203 3.37636719 -9.53908203 3.37636719 -10.91796875 3.6328125 C-11.60503906 3.75398438 -12.29210937 3.87515625 -13 4 C-9.41420832 -0.98892755 -5.61771415 -0.43213186 0 0 Z " fill="#26F3F6" transform="translate(624,305)"/>
<path d="M0 0 C2.64 0.33 5.28 0.66 8 1 C5.37801226 3.15377564 3.35595828 4.40072174 0 5 C0 3.35 0 1.7 0 0 Z " fill="#20F3F1" transform="translate(598,310)"/>
<path d="M0 0 C1.65 0 3.3 0 5 0 C5.73080266 1.97746603 6.39421747 3.98072489 7 6 C6.67 6.66 6.34 7.32 6 8 C4.02 5.36 2.04 2.72 0 0 Z " fill="#27F3EF" transform="translate(673,426)"/>
<path d="M0 0 C4.82142857 5.78571429 4.82142857 5.78571429 6 9 C5.67 9.99 5.34 10.98 5 12 C4.0234375 10.2421875 3.046875 8.484375 2.0703125 6.7265625 C0.99102726 4.8387386 0.99102726 4.8387386 -1 3 C-0.67 2.01 -0.34 1.02 0 0 Z " fill="#2CEFEF" transform="translate(804,334)"/>
<path d="M0 0 C0.928125 0.20625 1.85625 0.4125 2.8125 0.625 C1.625 2.125 1.625 2.125 -0.1875 3.625 C-2.875 3.8125 -2.875 3.8125 -5.1875 3.625 C-5.5175 2.965 -5.8475 2.305 -6.1875 1.625 C-3.1875 -0.375 -3.1875 -0.375 0 0 Z " fill="#23F0F0" transform="translate(570.1875,508.375)"/>
<path d="M0 0 C3.99500618 1.3697164 6.80009492 3.25722422 10 6 C8.35 6 6.7 6 5 6 C5 5.34 5 4.68 5 4 C4.01 4 3.02 4 2 4 C2 3.34 2 2.68 2 2 C1.34 2 0.68 2 0 2 C0 1.34 0 0.68 0 0 Z " fill="#23EFF0" transform="translate(676,477)"/>
<path d="M0 0 C0.99 0 1.98 0 3 0 C1.64978174 4.41889613 -0.26115668 6.34345343 -4 9 C-4 8.01 -4 7.02 -4 6 C-3.34 6 -2.68 6 -2 6 C-1.67 5.01 -1.34 4.02 -1 3 C-0.67 2.01 -0.34 1.02 0 0 Z " fill="#2AF0EC" transform="translate(707,438)"/>
<path d="M0 0 C3.39417765 3.12621626 5.6062718 5.56541027 7 10 C5.109375 9.78515625 5.109375 9.78515625 3 9 C1.953125 6.93359375 1.953125 6.93359375 1.25 4.4375 C1.00765625 3.61121094 0.7653125 2.78492188 0.515625 1.93359375 C0.34546875 1.29550781 0.1753125 0.65742188 0 0 Z " fill="#2AF0EB" transform="translate(790,313)"/>
<path d="M0 0 C4.455 2.97 4.455 2.97 9 6 C7.68 6.33 6.36 6.66 5 7 C2.25 4.6875 2.25 4.6875 0 2 C0 1.34 0 0.68 0 0 Z " fill="#2EEBEE" transform="translate(758,283)"/>
<path d="M0 0 C1.31625194 2.63250388 0.74813658 3.80179056 0.0625 6.625 C-0.13214844 7.44226563 -0.32679688 8.25953125 -0.52734375 9.1015625 C-0.68332031 9.72804688 -0.83929687 10.35453125 -1 11 C-3.30019361 7.54970958 -3.43132515 6.05445642 -3 2 C-2.01 1.34 -1.02 0.68 0 0 Z " fill="#22EFEC" transform="translate(666,326)"/>
<path d="M0 0 C0.66 0 1.32 0 2 0 C2 0.66 2 1.32 2 2 C2.99 2.33 3.98 2.66 5 3 C5.33 4.98 5.66 6.96 6 9 C2.91910327 6.22719294 1.31224548 3.93673644 0 0 Z " fill="#2DECF0" transform="translate(629,378)"/>
<path d="M0 0 C0.66 0.33 1.32 0.66 2 1 C0.37660195 2.70884005 -1.29319053 4.37446717 -3 6 C-3.66 6 -4.32 6 -5 6 C-5 5.01 -5 4.02 -5 3 C-2.625 1.25 -2.625 1.25 0 0 Z " fill="#1FF3F3" transform="translate(662,315)"/>
<path d="M0 0 C4.67692308 1.47692308 4.67692308 1.47692308 6.3125 4.125 C6.539375 4.74375 6.76625 5.3625 7 6 C4.69 5.01 2.38 4.02 0 3 C0 2.01 0 1.02 0 0 Z " fill="#20F4F4" transform="translate(780,304)"/>
<path d="M0 0 C0.66 1.32 1.32 2.64 2 4 C1.01 4 0.02 4 -1 4 C-1 4.66 -1 5.32 -1 6 C-2.32 5.67 -3.64 5.34 -5 5 C-3.35 3.35 -1.7 1.7 0 0 Z " fill="#26EFEF" transform="translate(780,486)"/>
<path d="M0 0 C3.34373475 0.55728913 6.03312999 1.35173889 9 3 C9 3.66 9 4.32 9 5 C5.22454612 3.90931332 2.52956528 3.0916909 0 0 Z " fill="#33ECEB" transform="translate(570,426)"/>
<path d="M0 0 C1.65 0 3.3 0 5 0 C5 0.66 5 1.32 5 2 C5.66 2 6.32 2 7 2 C7 2.99 7 3.98 7 5 C3.34683329 3.75023244 2.21934164 3.32901247 0 0 Z " fill="#26F2F3" transform="translate(560,419)"/>
<path d="M0 0 C1.32 0 2.64 0 4 0 C4.33 1.98 4.66 3.96 5 6 C3.2925002 4.71937515 1.62626404 3.38232443 0 2 C0 1.34 0 0.68 0 0 Z " fill="#1FF3ED" transform="translate(641,394)"/>
<path d="M0 0 C-1.30406884 2.01920337 -2.63823419 4.01924973 -4 6 C-4.33 6 -4.66 6 -5 6 C-5.33 4.02 -5.66 2.04 -6 0 C-3 -1 -3 -1 0 0 Z " fill="#23EEEF" transform="translate(568,340)"/>
<path d="M0 0 C3.375 -0.125 3.375 -0.125 7 0 C7.66 0.66 8.32 1.32 9 2 C6.36 2.33 3.72 2.66 1 3 C0.67 2.01 0.34 1.02 0 0 Z " fill="#1AF3F6" transform="translate(722,267)"/>
<path d="M0 0 C0.66 0 1.32 0 2 0 C2.66 2.31 3.32 4.62 4 7 C3.01 6.67 2.02 6.34 1 6 C0.67 4.02 0.34 2.04 0 0 Z " fill="#21F3F5" transform="translate(793,399)"/>
<path d="M0 0 C3.24208567 0.35049575 4.61527704 0.56221181 6.8125 3.0625 C7.204375 3.701875 7.59625 4.34125 8 5 C7.67 5.66 7.34 6.32 7 7 C5.83040013 6.02433888 4.66438823 5.044375 3.5 4.0625 C2.8503125 3.51722656 2.200625 2.97195313 1.53125 2.41015625 C1.0259375 1.94480469 0.520625 1.47945313 0 1 C0 0.67 0 0.34 0 0 Z " fill="#2DF3F2" transform="translate(750,338)"/>
<path d="M0 0 C0.33 1.32 0.66 2.64 1 4 C-0.9375 6.25 -0.9375 6.25 -3 8 C-3.66 7.67 -4.32 7.34 -5 7 C-3.35 4.69 -1.7 2.38 0 0 Z " fill="#29EEED" transform="translate(556,312)"/>
</svg>
